<svg width="584" height="136" viewBox="0 0 584 136" fill="none" xmlns="http://www.w3.org/2000/svg">
<path d="M227.556 47.7709C226.439 42.4437 224.034 38.4053 220.339 35.6558C216.644 32.9063 211.961 31.5315 206.29 31.5315C200.877 31.5315 196.538 32.7774 193.273 35.2692C190.008 37.675 188.376 40.8541 188.376 44.8066C188.376 48.1576 189.536 50.6923 191.855 52.4108C194.261 54.0433 197.741 55.3751 202.295 56.4062L217.89 60.0149C224.076 61.6474 229.017 63.28 232.712 64.9125C236.406 66.4591 239.5 69.0798 241.991 72.7745C244.569 76.3832 245.858 81.3667 245.858 87.725C245.858 93.6537 244.225 98.6802 240.96 102.804C237.781 106.929 233.442 110.022 227.943 112.084C222.444 114.06 216.258 115.048 209.384 115.048C198.042 115.048 188.805 112.428 181.674 107.187C174.628 101.945 170.375 94.427 168.914 84.6318L185.025 82.9563C185.798 89.7442 188.419 94.6848 192.887 97.778C197.354 100.785 202.939 102.289 209.641 102.289C215.484 102.289 220.21 101.043 223.819 98.5513C227.513 95.9736 229.361 92.5367 229.361 88.2405C229.361 85.4051 228.716 83.1281 227.427 81.4097C226.139 79.6912 224.377 78.4024 222.143 77.5432C219.909 76.598 216.902 75.6529 213.121 74.7077L196.882 70.5834C191.984 69.3805 187.774 67.9198 184.251 66.2014C180.728 64.4829 177.807 61.9482 175.487 58.5972C173.167 55.2462 172.007 50.8641 172.007 45.451C172.007 40.0379 173.511 35.3551 176.518 31.4026C179.526 27.3643 183.65 24.2711 188.891 22.123C194.132 19.9749 200.018 18.9009 206.548 18.9009C216.601 18.9009 224.721 21.3067 230.907 26.1184C237.18 30.8441 241.39 37.632 243.538 46.4821L227.556 47.7709Z" fill="white"/>
<path d="M282.857 100.613C285.778 100.613 287.84 100.57 289.043 100.485V112.986C286.981 113.158 283.458 113.244 278.475 113.244C274.007 113.244 270.441 112.814 267.777 111.955C265.2 111.096 263.266 109.549 261.977 107.315C260.689 105.081 260.044 101.902 260.044 97.778V55.6329H248.96V44.8066H260.044V25.7317H275.124V44.8066H289.688V55.6329H275.124V93.7826C275.124 96.7039 275.682 98.5942 276.799 99.4535C277.916 100.227 279.935 100.613 282.857 100.613Z" fill="white"/>
<path d="M311.065 55.1173H311.581C313.471 51.5945 316.178 48.759 319.7 46.611C323.223 44.377 327.305 43.26 331.944 43.26C333.921 43.26 335.768 43.4748 337.486 43.9044V58.3394C335.081 57.9957 332.804 57.8239 330.656 57.8239C318.111 57.8239 311.839 64.354 311.839 77.4143V112.986H296.759V44.8066H311.065V55.1173Z" fill="white"/>
<path d="M406.605 93.0093C404.8 98.9379 401.32 104.007 396.165 108.218C391.01 112.428 383.749 114.533 374.384 114.533C367.853 114.533 362.097 113.072 357.113 110.151C352.13 107.144 348.263 102.976 345.514 97.6491C342.85 92.3219 341.518 86.1354 341.518 79.0898C341.518 71.8723 342.85 65.5999 345.514 60.2727C348.177 54.8596 351.958 50.6923 356.855 47.7709C361.839 44.7636 367.682 43.26 374.384 43.26C380.828 43.26 386.499 44.6347 391.396 47.3843C396.38 50.1338 400.246 54.1722 402.996 59.4994C405.831 64.7407 407.249 71.013 407.249 78.3165C407.249 79.1757 407.163 80.5505 406.991 82.4408H356.855C357.027 88.5413 358.703 93.5248 361.882 97.3913C365.061 101.172 369.228 103.062 374.384 103.062C379.281 103.062 383.062 101.902 385.725 99.5824C388.389 97.1765 390.236 94.427 391.267 91.3338L406.605 93.0093ZM374.384 54.7307C369.314 54.7307 365.276 56.3632 362.268 59.6283C359.347 62.8074 357.629 66.8028 357.113 71.6145H391.783C391.267 66.8028 389.506 62.8074 386.499 59.6283C383.577 56.3632 379.539 54.7307 374.384 54.7307Z" fill="white"/>
<path d="M460.3 112.986C459.699 112.299 459.183 111.139 458.753 109.506C458.41 107.874 458.238 105.984 458.238 103.836C456.262 107.272 453.125 109.936 448.829 111.826C444.619 113.631 440.194 114.533 435.554 114.533C431.516 114.533 427.735 113.717 424.212 112.084C420.775 110.452 418.026 108.089 415.964 104.995C413.988 101.902 412.999 98.3365 412.999 94.2981C412.999 87.2524 415.362 82.0541 420.088 78.7031C424.9 75.3521 432.117 73.2041 441.741 72.2589C448.099 71.5715 452.438 70.6693 454.758 69.5523C457.078 68.3494 458.238 66.631 458.238 64.397C458.238 61.3897 457.121 59.0698 454.887 57.4372C452.739 55.8047 449.388 54.9884 444.834 54.9884C441.311 54.9884 438.132 55.8906 435.296 57.695C432.547 59.4994 430.614 62.2059 429.497 65.8147L415.577 63.1081C417.038 56.9217 420.432 52.0671 425.759 48.5442C431.172 45.0214 437.702 43.26 445.349 43.26C454.887 43.26 461.933 45.1932 466.486 49.0598C471.04 52.9263 473.317 58.0817 473.317 64.5259V98.6802C473.317 102.89 473.403 105.984 473.575 107.96C473.833 109.936 474.348 111.612 475.122 112.986H460.3ZM458.238 78.5742C457.207 79.5194 455.273 80.3357 452.438 81.023C449.603 81.6245 445.994 82.183 441.612 82.6985C437.745 83.2141 434.566 84.417 432.074 86.3073C429.583 88.1117 428.337 90.6464 428.337 93.9115C428.337 96.9187 429.282 99.2387 431.172 100.871C433.148 102.504 435.855 103.32 439.292 103.32C442.299 103.32 445.221 102.719 448.056 101.516C450.977 100.313 453.383 98.4654 455.273 95.9736C457.25 93.3959 458.238 90.1738 458.238 86.3073V78.5742Z" fill="white"/>
<path d="M560.754 43.26C567.198 43.26 572.611 45.3651 576.993 49.5753C581.376 53.6996 583.567 59.8431 583.567 68.0057V112.986H568.487V72.13C568.487 66.2873 567.37 62.12 565.136 59.6283C562.988 57.0506 559.723 55.7617 555.341 55.7617C551.303 55.7617 547.866 57.5232 545.03 61.046C542.195 64.5688 540.777 69.4664 540.777 75.7388V112.986H525.698V72.13C525.698 66.2873 524.581 62.12 522.347 59.6283C520.199 57.0506 516.976 55.7617 512.68 55.7617C508.642 55.7617 505.205 57.5232 502.37 61.046C499.534 64.5688 498.116 69.4664 498.116 75.7388V112.986H483.037V44.8066H497.472V53.9574H497.988C502.971 46.8258 509.63 43.26 517.965 43.26C522.175 43.26 526.041 44.2051 529.564 46.0954C533.087 47.9857 535.836 50.7782 537.813 54.4729C540.906 50.7782 544.257 47.9857 547.866 46.0954C551.474 44.2051 555.771 43.26 560.754 43.26Z" fill="white"/>
<path fill-rule="evenodd" clip-rule="evenodd" d="M106.805 20.0462C115.401 16.8082 124.912 18.6881 131.625 24.9569H131.628C140.48 33.2167 142.597 47.0865 136.665 57.9367L92.9497 135.816H47.0622L3.34691 57.9367C-2.58517 47.0865 -0.464717 33.2167 8.38344 24.9569C15.0963 18.6918 24.6069 16.8082 33.2034 20.0462L39.5796 22.4479C62.2458 29.9712 45.7041 0 45.7041 0H94.3042C94.3042 0 77.7587 29.9712 100.429 22.4479L106.805 20.0462ZM27.7462 75.6754C18.6437 40.1206 39.8428 37.0615 42.0812 36.8396L28.759 31.8215C24.6735 30.2821 20.1551 31.1776 16.9614 34.1566C12.258 38.5455 11.17 45.9912 14.3673 51.8714L27.7462 75.6754ZM112.245 75.6997L125.637 51.8714H125.63C128.831 45.9949 127.739 38.5492 123.036 34.1566C119.846 31.1776 115.324 30.2821 111.238 31.8215L97.9159 36.8396C100.155 37.0616 121.363 40.122 112.245 75.6997ZM43.7319 91.7329C45.0271 106.165 56.4066 113.104 70.8391 113.104C84.0689 113.104 96.2811 106.443 96.2811 93.0281C96.2811 82.2037 88.1396 76.4677 75.5574 73.8773L67.9711 72.3045C61.0324 70.8242 57.8868 68.8814 57.8868 64.5331C57.8868 59.4448 63.2528 56.0217 69.9139 56.0217C77.0377 56.0217 81.8485 59.6298 82.7737 65.6433H95.1709C93.8756 53.0611 83.6063 45.8449 69.9139 45.8449C56.4991 45.8449 45.4897 53.8938 45.4897 65.5508C45.4897 75.1725 51.8733 81.0935 64.733 83.869L71.3942 85.3493C79.073 86.9221 83.6989 89.42 83.6989 94.3234C83.6989 99.7818 78.0554 103.02 70.8391 103.02C63.2528 103.02 57.2392 99.3192 56.129 91.7329H43.7319Z" fill="#00ADE6"/>
</svg>
